<?xml version="1.0" encoding="utf-8"?>
<!-- Generator: Adobe Illustrator 25.4.1, SVG Export Plug-In . SVG Version: 6.00 Build 0)  -->
<svg version="1.1" id="Calque_1" xmlns="http://www.w3.org/2000/svg" xmlns:xlink="http://www.w3.org/1999/xlink" x="0px" y="0px"
	 viewBox="0 0 257.1 66.2" style="enable-background:new 0 0 257.1 66.2;" xml:space="preserve">
<style type="text/css">
	.st0{fill:#510098;}
</style>
<g id="Calque_2_00000140731474877983467870000000978393614304091038_">
	<g id="Calque_1-2">
		<path class="st0" d="M26.8,49.6h10c2.2-0.3,3.9-2.1,4-4.3V30.9c0-1.9-1.5-3.5-3.5-3.5c-1.9,0-3.5,1.5-3.5,3.5c0,0,0,0,0,0v9.1
			c0,1.4-1.2,2.6-2.6,2.6h-4.5c-1.9,0-3.5,1.6-3.5,3.5c0,0,0,0,0,0C23.3,48.1,24.9,49.6,26.8,49.6z M31.3,16.7h-10
			c-2.2,0.3-3.9,2.1-4,4.3v14.4c0,1.9,1.5,3.5,3.5,3.5s3.5-1.5,3.5-3.5v-9.1c0-1.4,1.2-2.6,2.6-2.6h4.5c1.9,0,3.5-1.6,3.5-3.5
			c0,0,0,0,0,0C34.8,18.2,33.2,16.7,31.3,16.7z"/>
		<path class="st0" d="M33,9.8c8.1,0,14.7,6.6,14.7,14.7v28.3c-0.3,2-1.9,3.5-3.9,3.7H25c-8.1,0-14.7-6.6-14.7-14.7l0,0V14.3
			c0-2.5,2-4.5,4.5-4.5H33 M33,2.8H14.8C8.5,2.8,3.4,8,3.4,14.3v27.4c0,11.9,9.7,21.6,21.6,21.6h19.1c5.5-0.4,9.9-4.7,10.5-10.2
			V24.5C54.6,12.5,44.9,2.8,33,2.8C33,2.8,33,2.8,33,2.8z M81.1,50c-2.4,0-4.7-0.6-6.8-1.8c-2.2-1.1-4-2.7-5.5-4.7
			c-0.4-0.5-0.3-1.2,0.2-1.6l2.6-2.3c0.2-0.2,0.5-0.3,0.8-0.3c0.1,0,0.1,0,0.2,0c0.3,0,0.6,0.2,0.8,0.5c0.9,1.4,2.1,2.6,3.6,3.5
			c1.4,0.8,3,1.3,4.6,1.3c1.7,0,3-0.4,3.9-1.1c0.8-0.7,1.2-1.6,1.2-2.8c0-1.3-0.4-2.3-1.3-3c-1-0.8-2.7-1.5-5-2.2
			c-6.8-1.7-10.2-4.9-10.2-9.6c0-2.9,1-5.2,2.9-6.8c1.9-1.6,4.5-2.3,7.7-2.3c2.2,0,4.3,0.4,6.3,1.3c2,0.9,3.7,2.3,5,4
			c0.4,0.5,0.3,1.2-0.2,1.7l-2.5,2.2c-0.5,0.4-1.2,0.4-1.7-0.1c0,0,0,0,0-0.1c-0.8-1.1-1.8-2.1-3-2.8c-1.2-0.6-2.5-0.9-3.9-0.9
			c-1.5,0-2.8,0.3-3.7,1c-0.8,0.6-1.3,1.5-1.2,2.5c0,1.1,0.4,2,1.2,2.6c0.9,0.8,2.6,1.4,4.9,2c3.2,0.9,5.7,2.1,7.4,3.6
			c1.9,1.6,2.9,3.9,2.9,6.8c0,1.7-0.5,3.4-1.4,4.8c-1,1.4-2.4,2.6-4,3.2C85.1,49.6,83.1,50,81.1,50L81.1,50z M106.3,50.1
			c-2,0-4.1-0.5-5.8-1.5c-1.7-1-3.1-2.5-4-4.3c-1-1.9-1.5-4-1.4-6.1c0-2.1,0.5-4.2,1.4-6.1c0.9-1.8,2.3-3.3,4-4.3
			c1.7-1,3.7-1.6,5.8-1.6c1.7,0,3.4,0.4,4.9,1.2c1.4,0.9,2.7,2,3.7,3.3c0.4,0.5,0.3,1.3-0.2,1.7l-2.2,1.7c-0.2,0.2-0.5,0.3-0.7,0.3
			c-0.1,0-0.1,0-0.2,0c-0.3,0-0.6-0.2-0.8-0.5c-1.2-1.7-2.6-2.5-4.5-2.5c-1.1,0-2.1,0.3-3,0.8c-0.9,0.6-1.6,1.4-2.1,2.4
			c-1,2.3-1,5,0,7.3c0.5,1,1.2,1.8,2.1,2.4c0.9,0.6,1.9,0.8,3,0.8c1.2,0,2.1-0.2,2.8-0.6c0.8-0.4,1.5-1,2-1.8
			c0.4-0.5,1.1-0.6,1.6-0.2l2.3,1.6c0.5,0.4,0.7,1.1,0.3,1.6c0,0,0,0-0.1,0.1c-1.1,1.3-2.4,2.4-3.9,3.1
			C109.8,49.7,108.1,50.1,106.3,50.1L106.3,50.1z M128.2,50.1c-2,0-4-0.5-5.8-1.6c-1.7-1-3.1-2.5-4-4.3c-1-1.9-1.5-4-1.4-6.1
			c0-2.1,0.4-4.2,1.4-6.1c0.9-1.8,2.3-3.2,4-4.3c1.7-1,3.7-1.6,5.8-1.6c1.6,0,3.2,0.4,4.6,1.1c0.5,0.2,0.9,0.5,1.3,0.9v-0.1
			c0-0.7,0.5-1.2,1.2-1.2h2.9c0.7,0,1.2,0.5,1.2,1.2v20.1c0,0.7-0.5,1.2-1.2,1.2h-2.9c-0.7,0-1.2-0.5-1.2-1.2v-0.1
			c-0.4,0.3-0.9,0.6-1.3,0.8C131.3,49.7,129.8,50.1,128.2,50.1L128.2,50.1z M128.1,31.2c-1.1,0-2.1,0.3-3,0.8
			c-0.9,0.6-1.6,1.4-2.1,2.4c-0.5,1.1-0.8,2.4-0.8,3.6c0,1.3,0.2,2.5,0.8,3.7c0.5,1,1.2,1.8,2.1,2.4c0.9,0.6,1.9,0.9,3,0.8
			c1.1,0,2.1-0.3,3-0.8c0.9-0.6,1.6-1.4,2.1-2.4c1-2.3,1-5,0-7.3c-0.5-1-1.2-1.8-2.1-2.4C130.2,31.5,129.2,31.2,128.1,31.2
			L128.1,31.2z"/>
		<path class="st0" d="M144.3,16.9h2.9c0.7,0,1.2,0.5,1.2,1.2v30c0,0.7-0.5,1.2-1.2,1.2h-2.9c-0.7,0-1.2-0.5-1.2-1.2v-30
			C143.1,17.4,143.6,16.9,144.3,16.9z"/>
		<path class="st0" d="M195.4,49.4c-0.5,0-1-0.3-1.1-0.8l-3.8-12l-4.1,12.1c-0.2,0.5-0.6,0.8-1.1,0.8h-2.9c-0.5,0-1-0.3-1.1-0.8
			l-6.6-20.1c-0.2-0.5,0-1.1,0.5-1.4c0.2-0.1,0.4-0.2,0.6-0.2h3.1c0.5,0,1,0.3,1.1,0.8l4,12.5l4.1-12.5c0.2-0.5,0.6-0.8,1.1-0.8h2.8
			c0.5,0,1,0.3,1.1,0.8l4,12.4l4-12.4c0.2-0.5,0.6-0.8,1.1-0.8h2.8c0.2,0,0.3,0,0.5,0.1c0.6,0.2,0.9,0.9,0.7,1.5l-6.5,20.1
			c-0.2,0.5-0.6,0.8-1.1,0.8L195.4,49.4z M218.1,50.1c-2,0-4-0.5-5.8-1.6c-1.7-1-3.1-2.5-4-4.3c-1-1.9-1.5-4-1.4-6.1
			c0-2.1,0.4-4.2,1.4-6.1c0.9-1.8,2.3-3.2,4-4.3c1.7-1,3.7-1.6,5.8-1.6c1.6,0,3.2,0.4,4.6,1.1c0.5,0.2,0.9,0.5,1.3,0.9v-0.1
			c0-0.7,0.5-1.2,1.2-1.2h2.9c0.7,0,1.2,0.5,1.2,1.2v20.1c0,0.7-0.5,1.2-1.2,1.2h-2.9c-0.7,0-1.2-0.5-1.2-1.2v-0.1
			c-0.4,0.3-0.8,0.6-1.3,0.8C221.2,49.7,219.7,50.1,218.1,50.1L218.1,50.1z M218,31.2c-1.1,0-2.1,0.3-3,0.8
			c-0.9,0.6-1.6,1.4-2.1,2.4c-0.5,1.1-0.8,2.4-0.8,3.6c0,1.3,0.2,2.5,0.8,3.7c0.5,1,1.2,1.8,2.1,2.4c0.9,0.6,1.9,0.9,3,0.8
			c1.1,0,2.1-0.3,3-0.8c0.9-0.6,1.6-1.4,2.1-2.4c1-2.3,1-5,0-7.3c-0.5-1-1.2-1.8-2.1-2.4C220.1,31.5,219.1,31.2,218,31.2L218,31.2z
			 M170.1,42.3c-0.6-0.4-1.3-0.3-1.8,0.2c-0.5,0.7-1.2,1.3-1.9,1.7c-1,0.5-2.2,0.8-3.7,0.8c-1.8,0-3.1-0.6-4.1-1.8
			c-0.8-1-1.4-2.1-1.6-3.3h15.2c0.6,0,1.1-0.5,1.2-1.1c0-0.3,0-0.8,0-1.4c0-2-0.5-4-1.4-5.7c-0.9-1.7-2.2-3.1-3.9-4.1
			c-1.7-1-3.6-1.5-5.5-1.5c-2,0-4,0.5-5.8,1.6c-1.7,1-3.1,2.5-4,4.3c-1,1.9-1.4,4-1.4,6.1c0,2.1,0.5,4.2,1.4,6.1
			c0.9,1.8,2.3,3.3,4,4.3c1.8,1,3.8,1.6,5.8,1.6c2.3,0,4.4-0.5,6.1-1.4c1.4-0.8,2.6-1.8,3.6-3.1c0.4-0.6,0.3-1.4-0.2-1.8
			c0,0,0,0-0.1-0.1L170.1,42.3z M158.9,32.7c1-1,2.2-1.4,3.7-1.4c1.6,0,2.9,0.4,3.8,1.3c0.7,0.7,1.2,1.7,1.5,2.7h-10.5
			C157.7,34.2,158.2,33.4,158.9,32.7L158.9,32.7z M253,27.4c-0.2-0.3-0.6-0.5-1-0.5h-2.8c-0.5,0-0.9,0.3-1.1,0.8l-5.7,14.7
			l-5.4-14.7c-0.2-0.5-0.6-0.7-1.1-0.7h-3.1c-0.7,0-1.2,0.5-1.2,1.2c0,0.1,0,0.3,0.1,0.4l7.9,20.9c-0.2,0.9-0.6,1.6-1.2,1.9
			c-0.7,0.5-2.2,0.6-2.9,0.6c-0.7,0-1.2,0.6-1.2,1.3v2c0,0.7,0.6,1.3,1.3,1.3c0,0,0,0,0,0c1.2,0,3.2,0.1,4.8-0.7
			c3.2-1.7,3.7-3.8,4.6-6.2l8-21.2C253.3,28.1,253.2,27.7,253,27.4L253,27.4z"/>
	</g>
</g>
</svg>
